<svg width="431" height="694" viewBox="0 0 431 694" fill="none" xmlns="http://www.w3.org/2000/svg">
<rect x="8" y="8" width="415" height="678" rx="49" fill="white" stroke="#FF0266" stroke-width="2" stroke-linecap="round" stroke-dasharray="9 9"/>
<path d="M148 7C147.448 7 147 7.44772 147 8C147 8.55228 147.448 9 148 9V7ZM249.707 8.70711C250.098 8.31658 250.098 7.68342 249.707 7.29289L243.343 0.928932C242.953 0.538408 242.319 0.538408 241.929 0.928932C241.538 1.31946 241.538 1.95262 241.929 2.34315L247.586 8L241.929 13.6569C241.538 14.0474 241.538 14.6805 241.929 15.0711C242.319 15.4616 242.953 15.4616 243.343 15.0711L249.707 8.70711ZM148 9H249V7H148V9Z" fill="#FF0266"/>
<path d="M424 399C424 398.448 423.552 398 423 398C422.448 398 422 398.448 422 399L424 399ZM422.293 578.707C422.683 579.098 423.317 579.098 423.707 578.707L430.071 572.343C430.462 571.953 430.462 571.319 430.071 570.929C429.681 570.538 429.047 570.538 428.657 570.929L423 576.586L417.343 570.929C416.953 570.538 416.319 570.538 415.929 570.929C415.538 571.319 415.538 571.953 415.929 572.343L422.293 578.707ZM422 399L422 578L424 578L424 399L422 399Z" fill="#FF0266"/>
<path d="M7 309C7 309.552 7.44772 310 8 310C8.55228 310 9 309.552 9 309L7 309ZM8.7071 129.293C8.31657 128.902 7.68341 128.902 7.29289 129.293L0.928925 135.657C0.5384 136.047 0.5384 136.681 0.928925 137.071C1.31945 137.462 1.95261 137.462 2.34314 137.071L7.99999 131.414L13.6568 137.071C14.0474 137.462 14.6805 137.462 15.0711 137.071C15.4616 136.681 15.4616 136.047 15.0711 135.657L8.7071 129.293ZM9 309L8.99999 130L6.99999 130L7 309L9 309Z" fill="#FF0266"/>
<path d="M329 687C329.552 687 330 686.552 330 686C330 685.448 329.552 685 329 685L329 687ZM221.293 685.293C220.902 685.683 220.902 686.317 221.293 686.707L227.657 693.071C228.047 693.462 228.681 693.462 229.071 693.071C229.462 692.681 229.462 692.047 229.071 691.657L223.414 686L229.071 680.343C229.462 679.953 229.462 679.319 229.071 678.929C228.681 678.538 228.047 678.538 227.657 678.929L221.293 685.293ZM329 685L222 685L222 687L329 687L329 685Z" fill="#FF0266"/>
</svg>
