<svg width="986" height="222" viewBox="0 0 986 222" fill="none" xmlns="http://www.w3.org/2000/svg">
<circle cx="961.5" cy="200.5" r="16" transform="rotate(-180 961.5 200.5)" stroke="#8C2121"/>
<path d="M938.968 219.727C939.922 220.849 941.605 220.986 942.727 220.032C943.849 219.078 943.986 217.395 943.032 216.273C942.078 215.151 940.395 215.014 939.273 215.968C938.151 216.922 938.014 218.605 938.968 219.727ZM961.498 201.041C961.521 200.765 961.316 200.524 961.04 200.502L956.555 200.138C956.28 200.116 956.039 200.321 956.016 200.596C955.994 200.871 956.199 201.112 956.474 201.135L960.461 201.458L960.138 205.445C960.116 205.72 960.321 205.961 960.596 205.984C960.871 206.006 961.112 205.801 961.135 205.526L961.498 201.041ZM941.324 218.381L961.324 201.381L960.676 200.619L940.676 217.619L941.324 218.381Z" fill="#BD1620"/>
<path d="M984.014 181.051C983.049 179.939 981.365 179.819 980.252 180.784C979.14 181.75 979.021 183.434 979.986 184.546C980.951 185.659 982.635 185.778 983.748 184.813C984.86 183.848 984.979 182.164 984.014 181.051ZM961.674 199.965C961.655 200.24 961.862 200.479 962.138 200.499L966.626 200.817C966.902 200.837 967.141 200.629 967.16 200.354C967.18 200.078 966.972 199.839 966.697 199.82L962.707 199.537L962.99 195.547C963.01 195.271 962.802 195.032 962.527 195.013C962.251 194.993 962.012 195.201 961.992 195.476L961.674 199.965ZM981.672 182.421L961.845 199.622L962.501 200.378L982.328 183.176L981.672 182.421Z" fill="#BD1620"/>
<path d="M0.646447 217.646C0.451184 217.842 0.451184 218.158 0.646447 218.354L3.82843 221.536C4.02369 221.731 4.34027 221.731 4.53553 221.536C4.7308 221.34 4.7308 221.024 4.53553 220.828L1.70711 218L4.53553 215.172C4.7308 214.976 4.7308 214.66 4.53553 214.464C4.34027 214.269 4.02369 214.269 3.82843 214.464L0.646447 217.646ZM938.333 218C938.333 219.473 939.527 220.667 941 220.667C942.473 220.667 943.667 219.473 943.667 218C943.667 216.527 942.473 215.333 941 215.333C939.527 215.333 938.333 216.527 938.333 218ZM1 218.5L3.00855 218.5L3.00855 217.5L1 217.5L1 218.5ZM7.02564 218.5L11.0427 218.5L11.0427 217.5L7.02564 217.5L7.02564 218.5ZM15.0598 218.5L19.0769 218.5L19.0769 217.5L15.0598 217.5L15.0598 218.5ZM23.094 218.5L27.1111 218.5L27.1111 217.5L23.094 217.5L23.094 218.5ZM31.1282 218.5L35.1453 218.5L35.1453 217.5L31.1282 217.5L31.1282 218.5ZM39.1624 218.5L43.1795 218.5L43.1795 217.5L39.1624 217.5L39.1624 218.5ZM47.1966 218.5L51.2137 218.5L51.2137 217.5L47.1966 217.5L47.1966 218.5ZM55.2308 218.5L59.2479 218.5L59.2479 217.5L55.2308 217.5L55.2308 218.5ZM63.265 218.5L67.282 218.5L67.282 217.5L63.265 217.5L63.265 218.5ZM71.2991 218.5L75.3162 218.5L75.3162 217.5L71.2991 217.5L71.2991 218.5ZM79.3333 218.5L83.3504 218.5L83.3504 217.5L79.3333 217.5L79.3333 218.5ZM87.3675 218.5L91.3846 218.5L91.3846 217.5L87.3675 217.5L87.3675 218.5ZM95.4017 218.5L99.4188 218.5L99.4188 217.5L95.4017 217.5L95.4017 218.5ZM103.436 218.5L107.453 218.5L107.453 217.5L103.436 217.5L103.436 218.5ZM111.47 218.5L115.487 218.5L115.487 217.5L111.47 217.5L111.47 218.5ZM119.504 218.5L123.521 218.5L123.521 217.5L119.504 217.5L119.504 218.5ZM127.538 218.5L131.555 218.5L131.555 217.5L127.538 217.5L127.538 218.5ZM135.573 218.5L139.59 218.5L139.59 217.5L135.573 217.5L135.573 218.5ZM143.607 218.5L147.624 218.5L147.624 217.5L143.607 217.5L143.607 218.5ZM151.641 218.5L155.658 218.5L155.658 217.5L151.641 217.5L151.641 218.5ZM159.675 218.5L163.692 218.5L163.692 217.5L159.675 217.5L159.675 218.5ZM167.709 218.5L171.726 218.5L171.726 217.5L167.709 217.5L167.709 218.5ZM175.743 218.5L179.761 218.5L179.761 217.5L175.743 217.5L175.743 218.5ZM183.778 218.5L187.795 218.5L187.795 217.5L183.778 217.5L183.778 218.5ZM191.812 218.5L195.829 218.5L195.829 217.5L191.812 217.5L191.812 218.5ZM199.846 218.5L203.863 218.5L203.863 217.5L199.846 217.5L199.846 218.5ZM207.88 218.5L211.897 218.5L211.897 217.5L207.88 217.5L207.88 218.5ZM215.914 218.5L219.931 218.5L219.931 217.5L215.914 217.5L215.914 218.5ZM223.949 218.5L227.966 218.5L227.966 217.5L223.949 217.5L223.949 218.5ZM231.983 218.5L236 218.5L236 217.5L231.983 217.5L231.983 218.5ZM240.017 218.5L244.034 218.5L244.034 217.5L240.017 217.5L240.017 218.5ZM248.051 218.5L252.068 218.5L252.068 217.5L248.051 217.5L248.051 218.5ZM256.085 218.5L260.102 218.5L260.102 217.5L256.085 217.5L256.085 218.5ZM264.119 218.5L268.137 218.5L268.137 217.5L264.119 217.5L264.119 218.5ZM272.154 218.5L276.171 218.5L276.171 217.5L272.154 217.5L272.154 218.5ZM280.188 218.5L284.205 218.5L284.205 217.5L280.188 217.5L280.188 218.5ZM288.222 218.5L292.239 218.5L292.239 217.5L288.222 217.5L288.222 218.5ZM296.256 218.5L300.273 218.5L300.273 217.5L296.256 217.5L296.256 218.5ZM304.29 218.5L308.307 218.5L308.307 217.5L304.29 217.5L304.29 218.5ZM312.325 218.5L316.342 218.5L316.342 217.5L312.325 217.5L312.325 218.5ZM320.359 218.5L324.376 218.5L324.376 217.5L320.359 217.5L320.359 218.5ZM328.393 218.5L332.41 218.5L332.41 217.5L328.393 217.5L328.393 218.5ZM336.427 218.5L340.444 218.5L340.444 217.5L336.427 217.5L336.427 218.5ZM344.461 218.5L348.478 218.5L348.478 217.5L344.461 217.5L344.461 218.5ZM352.495 218.5L356.513 218.5L356.513 217.5L352.495 217.5L352.495 218.5ZM360.53 218.5L364.547 218.5L364.547 217.5L360.53 217.5L360.53 218.5ZM368.564 218.5L372.581 218.5L372.581 217.5L368.564 217.5L368.564 218.5ZM376.598 218.5L380.615 218.5L380.615 217.5L376.598 217.5L376.598 218.5ZM384.632 218.5L388.649 218.5L388.649 217.5L384.632 217.5L384.632 218.5ZM392.666 218.5L396.683 218.5L396.683 217.5L392.666 217.5L392.666 218.5ZM400.701 218.5L404.718 218.5L404.718 217.5L400.701 217.5L400.701 218.5ZM408.735 218.5L412.752 218.5L412.752 217.5L408.735 217.5L408.735 218.5ZM416.769 218.5L420.786 218.5L420.786 217.5L416.769 217.5L416.769 218.5ZM424.803 218.5L428.82 218.5L428.82 217.5L424.803 217.5L424.803 218.5ZM432.837 218.5L436.854 218.5L436.854 217.5L432.837 217.5L432.837 218.5ZM440.871 218.5L444.888 218.5L444.888 217.5L440.871 217.5L440.871 218.5ZM448.906 218.5L452.923 218.5L452.923 217.5L448.906 217.5L448.906 218.5ZM456.94 218.5L460.957 218.5L460.957 217.5L456.94 217.5L456.94 218.5ZM464.974 218.5L468.991 218.5L468.991 217.5L464.974 217.5L464.974 218.5ZM473.008 218.5L477.025 218.5L477.025 217.5L473.008 217.5L473.008 218.5ZM481.042 218.5L485.059 218.5L485.059 217.5L481.042 217.5L481.042 218.5ZM489.076 218.5L493.094 218.5L493.094 217.5L489.076 217.5L489.076 218.5ZM497.111 218.5L501.128 218.5L501.128 217.5L497.111 217.5L497.111 218.5ZM505.145 218.5L509.162 218.5L509.162 217.5L505.145 217.5L505.145 218.5ZM513.179 218.5L517.196 218.5L517.196 217.5L513.179 217.5L513.179 218.5ZM521.213 218.5L525.23 218.5L525.23 217.5L521.213 217.5L521.213 218.5ZM529.247 218.5L533.264 218.5L533.264 217.5L529.247 217.5L529.247 218.5ZM537.282 218.5L541.299 218.5L541.299 217.5L537.282 217.5L537.282 218.5ZM545.316 218.5L549.333 218.5L549.333 217.5L545.316 217.5L545.316 218.5ZM553.35 218.5L557.367 218.5L557.367 217.5L553.35 217.5L553.35 218.5ZM561.384 218.5L565.401 218.5L565.401 217.5L561.384 217.5L561.384 218.5ZM569.418 218.5L573.435 218.5L573.435 217.5L569.418 217.5L569.418 218.5ZM577.452 218.5L581.47 218.5L581.47 217.5L577.452 217.5L577.452 218.5ZM585.487 218.5L589.504 218.5L589.504 217.5L585.487 217.5L585.487 218.5ZM593.521 218.5L597.538 218.5L597.538 217.5L593.521 217.5L593.521 218.5ZM601.555 218.5L605.572 218.5L605.572 217.5L601.555 217.5L601.555 218.5ZM609.589 218.5L613.606 218.5L613.606 217.5L609.589 217.5L609.589 218.5ZM617.623 218.5L621.64 218.5L621.64 217.5L617.623 217.5L617.623 218.5ZM625.658 218.5L629.675 218.5L629.675 217.5L625.658 217.5L625.658 218.5ZM633.692 218.5L637.709 218.5L637.709 217.5L633.692 217.5L633.692 218.5ZM641.726 218.5L645.743 218.5L645.743 217.5L641.726 217.5L641.726 218.5ZM649.76 218.5L653.777 218.5L653.777 217.5L649.76 217.5L649.76 218.5ZM657.794 218.5L661.811 218.5L661.811 217.5L657.794 217.5L657.794 218.5ZM665.828 218.5L669.846 218.5L669.846 217.5L665.828 217.5L665.828 218.5ZM673.863 218.5L677.88 218.5L677.88 217.5L673.863 217.5L673.863 218.5ZM681.897 218.5L685.914 218.5L685.914 217.5L681.897 217.5L681.897 218.5ZM689.931 218.5L693.948 218.5L693.948 217.5L689.931 217.5L689.931 218.5ZM697.965 218.5L701.982 218.5L701.982 217.5L697.965 217.5L697.965 218.5ZM705.999 218.5L710.016 218.5L710.016 217.5L705.999 217.5L705.999 218.5ZM714.034 218.5L718.051 218.5L718.051 217.5L714.034 217.5L714.034 218.5ZM722.068 218.5L726.085 218.5L726.085 217.5L722.068 217.5L722.068 218.5ZM730.102 218.5L734.119 218.5L734.119 217.5L730.102 217.5L730.102 218.5ZM738.136 218.5L742.153 218.5L742.153 217.5L738.136 217.5L738.136 218.5ZM746.17 218.5L750.187 218.5L750.187 217.5L746.17 217.5L746.17 218.5ZM754.204 218.5L758.221 218.5L758.221 217.5L754.204 217.5L754.204 218.5ZM762.239 218.5L766.256 218.5L766.256 217.5L762.239 217.5L762.239 218.5ZM770.273 218.5L774.29 218.5L774.29 217.5L770.273 217.5L770.273 218.5ZM778.307 218.5L782.324 218.5L782.324 217.5L778.307 217.5L778.307 218.5ZM786.341 218.5L790.358 218.5L790.358 217.5L786.341 217.5L786.341 218.5ZM794.375 218.5L798.392 218.5L798.392 217.5L794.375 217.5L794.375 218.5ZM802.409 218.5L806.427 218.5L806.427 217.5L802.409 217.5L802.409 218.5ZM810.444 218.5L814.461 218.5L814.461 217.5L810.444 217.5L810.444 218.5ZM818.478 218.5L822.495 218.5L822.495 217.5L818.478 217.5L818.478 218.5ZM826.512 218.5L830.529 218.5L830.529 217.5L826.512 217.5L826.512 218.5ZM834.546 218.5L838.563 218.5L838.563 217.5L834.546 217.5L834.546 218.5ZM842.58 218.5L846.597 218.5L846.597 217.5L842.58 217.5L842.58 218.5ZM850.615 218.5L854.632 218.5L854.632 217.5L850.615 217.5L850.615 218.5ZM858.649 218.5L862.666 218.5L862.666 217.5L858.649 217.5L858.649 218.5ZM866.683 218.5L870.7 218.5L870.7 217.5L866.683 217.5L866.683 218.5ZM874.717 218.5L878.734 218.5L878.734 217.5L874.717 217.5L874.717 218.5ZM882.751 218.5L886.768 218.5L886.768 217.5L882.751 217.5L882.751 218.5ZM890.785 218.5L894.803 218.5L894.803 217.5L890.785 217.5L890.785 218.5ZM898.82 218.5L902.837 218.5L902.837 217.5L898.82 217.5L898.82 218.5ZM906.854 218.5L910.871 218.5L910.871 217.5L906.854 217.5L906.854 218.5ZM914.888 218.5L918.905 218.5L918.905 217.5L914.888 217.5L914.888 218.5ZM922.922 218.5L926.939 218.5L926.939 217.5L922.922 217.5L922.922 218.5ZM930.956 218.5L934.973 218.5L934.973 217.5L930.956 217.5L930.956 218.5ZM938.991 218.5L941 218.5L941 217.5L938.991 217.5L938.991 218.5Z" fill="#FF0266"/>
<path d="M982.354 0.646643C982.158 0.45134 981.842 0.451273 981.647 0.646494L978.464 3.8278C978.269 4.02302 978.268 4.33961 978.464 4.53491C978.659 4.73021 978.976 4.73028 979.171 4.53506L982 1.70723L984.828 4.53625C985.023 4.73156 985.339 4.73162 985.535 4.5364C985.73 4.34118 985.73 4.0246 985.535 3.8293L982.354 0.646643ZM981.962 180.332C980.489 180.332 979.295 181.525 979.295 182.998C979.295 184.471 980.488 185.665 981.961 185.665C983.434 185.666 984.628 184.472 984.628 182.999C984.629 181.526 983.435 180.332 981.962 180.332ZM981.5 1.00002L981.5 2.97826L982.5 2.97847L982.5 1.00023L981.5 1.00002ZM981.499 6.93475L981.498 10.8912L982.498 10.8915L982.499 6.93496L981.499 6.93475ZM981.497 14.8477L981.496 18.8042L982.496 18.8044L982.497 14.8479L981.497 14.8477ZM981.495 22.7607L981.495 26.7172L982.495 26.7174L982.495 22.7609L981.495 22.7607ZM981.494 30.6737L981.493 34.6302L982.493 34.6304L982.494 30.6739L981.494 30.6737ZM981.492 38.5867L981.491 42.5432L982.491 42.5434L982.492 38.5869L981.492 38.5867ZM981.49 46.4997L981.49 50.4561L982.49 50.4564L982.49 46.4999L981.49 46.4997ZM981.489 54.4126L981.488 58.3691L982.488 58.3693L982.489 54.4128L981.489 54.4126ZM981.487 62.3256L981.486 66.2821L982.486 66.2823L982.487 62.3258L981.487 62.3256ZM981.485 70.2386L981.485 74.1951L982.485 74.1953L982.485 70.2388L981.485 70.2386ZM981.484 78.1516L981.483 82.1081L982.483 82.1083L982.484 78.1518L981.484 78.1516ZM981.482 86.0645L981.481 90.021L982.481 90.0212L982.482 86.0648L981.482 86.0645ZM981.48 93.9775L981.48 97.934L982.48 97.9342L982.48 93.9777L981.48 93.9775ZM981.479 101.891L981.478 105.847L982.478 105.847L982.479 101.891L981.479 101.891ZM981.477 109.803L981.476 113.76L982.476 113.76L982.477 109.804L981.477 109.803ZM981.475 117.716L981.475 121.673L982.475 121.673L982.475 117.717L981.475 117.716ZM981.474 125.629L981.473 129.586L982.473 129.586L982.474 125.63L981.474 125.629ZM981.472 133.542L981.471 137.499L982.471 137.499L982.472 133.543L981.472 133.542ZM981.47 141.455L981.47 145.412L982.47 145.412L982.47 141.456L981.47 141.455ZM981.469 149.368L981.468 153.325L982.468 153.325L982.469 149.369L981.469 149.368ZM981.467 157.281L981.466 161.238L982.466 161.238L982.467 157.282L981.467 157.281ZM981.465 165.194L981.465 169.151L982.465 169.151L982.465 165.195L981.465 165.194ZM981.464 173.107L981.463 177.064L982.463 177.064L982.464 173.108L981.464 173.107ZM981.462 181.02L981.462 182.999L982.462 182.999L982.462 181.021L981.462 181.02Z" fill="#FF0266"/>
</svg>
