<svg width="986" height="222" viewBox="0 0 986 222" fill="none" xmlns="http://www.w3.org/2000/svg">
<circle cx="24.5" cy="21.5" r="16" stroke="#8C2121"/>
<path d="M47.0318 2.27294C46.078 1.15078 44.3951 1.01433 43.2729 1.96816C42.1508 2.92199 42.0143 4.60491 42.9682 5.72706C43.922 6.84922 45.6049 6.98567 46.7271 6.03184C47.8492 5.07801 47.9857 3.39509 47.0318 2.27294ZM24.5016 20.9596C24.4793 21.2348 24.6844 21.476 24.9596 21.4984L29.4449 21.862C29.7201 21.8844 29.9613 21.6793 29.9836 21.4041C30.006 21.1288 29.8009 20.8876 29.5257 20.8653L25.5388 20.542L25.862 16.5551C25.8844 16.2799 25.6793 16.0387 25.4041 16.0164C25.1288 15.994 24.8876 16.1991 24.8653 16.4743L24.5016 20.9596ZM44.6762 3.61903L24.6762 20.619L25.3238 21.381L45.3238 4.38097L44.6762 3.61903Z" fill="#BD1620"/>
<path d="M1.98573 40.9489C2.95086 42.0614 4.63507 42.1808 5.74752 41.2157C6.85997 40.2505 6.9794 38.5663 6.01427 37.4539C5.04914 36.3414 3.36493 36.222 2.25248 37.1871C1.14003 38.1522 1.0206 39.8365 1.98573 40.9489ZM24.3258 22.0354C24.3453 21.7599 24.1379 21.5208 23.8624 21.5013L19.3737 21.183C19.0983 21.1634 18.8591 21.3709 18.8396 21.6463C18.8201 21.9218 19.0275 22.1609 19.303 22.1805L23.293 22.4634L23.01 26.4534C22.9905 26.7288 23.198 26.9679 23.4734 26.9875C23.7489 27.007 23.988 26.7995 24.0075 26.5241L24.3258 22.0354ZM4.32766 39.5791L24.1547 22.3777L23.4994 21.6223L3.67234 38.8237L4.32766 39.5791Z" fill="#BD1620"/>
<path d="M985.354 4.3536C985.549 4.15834 985.549 3.84175 985.354 3.64649L982.172 0.464512C981.976 0.269249 981.66 0.269249 981.464 0.464512C981.269 0.659774 981.269 0.976356 981.464 1.17162L984.293 4.00005L981.464 6.82847C981.269 7.02373 981.269 7.34032 981.464 7.53558C981.66 7.73084 981.976 7.73084 982.172 7.53558L985.354 4.3536ZM47.6667 3.99996C47.6667 2.5272 46.4728 1.3333 45 1.3333C43.5273 1.3333 42.3334 2.5272 42.3334 3.99996C42.3334 5.47272 43.5273 6.66663 45 6.66663C46.4728 6.66663 47.6667 5.47272 47.6667 3.99996ZM985 3.50005L982.991 3.50005L982.991 4.50005L985 4.50005L985 3.50005ZM978.974 3.50005L974.957 3.50004L974.957 4.50004L978.974 4.50005L978.974 3.50005ZM970.94 3.50004L966.923 3.50004L966.923 4.50004L970.94 4.50004L970.94 3.50004ZM962.906 3.50004L958.889 3.50004L958.889 4.50004L962.906 4.50004L962.906 3.50004ZM954.872 3.50004L950.855 3.50004L950.855 4.50004L954.872 4.50004L954.872 3.50004ZM946.838 3.50004L942.821 3.50004L942.821 4.50004L946.838 4.50004L946.838 3.50004ZM938.803 3.50004L934.786 3.50004L934.786 4.50004L938.803 4.50004L938.803 3.50004ZM930.769 3.50004L926.752 3.50004L926.752 4.50004L930.769 4.50004L930.769 3.50004ZM922.735 3.50004L918.718 3.50004L918.718 4.50004L922.735 4.50004L922.735 3.50004ZM914.701 3.50004L910.684 3.50004L910.684 4.50004L914.701 4.50004L914.701 3.50004ZM906.667 3.50004L902.65 3.50004L902.65 4.50004L906.667 4.50004L906.667 3.50004ZM898.633 3.50004L894.615 3.50004L894.615 4.50004L898.633 4.50004L898.633 3.50004ZM890.598 3.50004L886.581 3.50004L886.581 4.50004L890.598 4.50004L890.598 3.50004ZM882.564 3.50004L878.547 3.50004L878.547 4.50004L882.564 4.50004L882.564 3.50004ZM874.53 3.50004L870.513 3.50004L870.513 4.50004L874.53 4.50004L874.53 3.50004ZM866.496 3.50004L862.479 3.50004L862.479 4.50004L866.496 4.50004L866.496 3.50004ZM858.462 3.50003L854.445 3.50003L854.445 4.50003L858.462 4.50003L858.462 3.50003ZM850.427 3.50003L846.41 3.50003L846.41 4.50003L850.427 4.50003L850.427 3.50003ZM842.393 3.50003L838.376 3.50003L838.376 4.50003L842.393 4.50003L842.393 3.50003ZM834.359 3.50003L830.342 3.50003L830.342 4.50003L834.359 4.50003L834.359 3.50003ZM826.325 3.50003L822.308 3.50003L822.308 4.50003L826.325 4.50003L826.325 3.50003ZM818.291 3.50003L814.274 3.50003L814.274 4.50003L818.291 4.50003L818.291 3.50003ZM810.257 3.50003L806.239 3.50003L806.239 4.50003L810.257 4.50003L810.257 3.50003ZM802.222 3.50003L798.205 3.50003L798.205 4.50003L802.222 4.50003L802.222 3.50003ZM794.188 3.50003L790.171 3.50003L790.171 4.50003L794.188 4.50003L794.188 3.50003ZM786.154 3.50003L782.137 3.50003L782.137 4.50003L786.154 4.50003L786.154 3.50003ZM778.12 3.50003L774.103 3.50003L774.103 4.50003L778.12 4.50003L778.12 3.50003ZM770.086 3.50003L766.069 3.50003L766.069 4.50003L770.086 4.50003L770.086 3.50003ZM762.051 3.50003L758.034 3.50003L758.034 4.50003L762.051 4.50003L762.051 3.50003ZM754.017 3.50003L750 3.50003L750 4.50003L754.017 4.50003L754.017 3.50003ZM745.983 3.50002L741.966 3.50002L741.966 4.50002L745.983 4.50002L745.983 3.50002ZM737.949 3.50002L733.932 3.50002L733.932 4.50002L737.949 4.50002L737.949 3.50002ZM729.915 3.50002L725.898 3.50002L725.898 4.50002L729.915 4.50002L729.915 3.50002ZM721.881 3.50002L717.863 3.50002L717.863 4.50002L721.881 4.50002L721.881 3.50002ZM713.846 3.50002L709.829 3.50002L709.829 4.50002L713.846 4.50002L713.846 3.50002ZM705.812 3.50002L701.795 3.50002L701.795 4.50002L705.812 4.50002L705.812 3.50002ZM697.778 3.50002L693.761 3.50002L693.761 4.50002L697.778 4.50002L697.778 3.50002ZM689.744 3.50002L685.727 3.50002L685.727 4.50002L689.744 4.50002L689.744 3.50002ZM681.71 3.50002L677.693 3.50002L677.693 4.50002L681.71 4.50002L681.71 3.50002ZM673.675 3.50002L669.658 3.50002L669.658 4.50002L673.675 4.50002L673.675 3.50002ZM665.641 3.50002L661.624 3.50002L661.624 4.50002L665.641 4.50002L665.641 3.50002ZM657.607 3.50002L653.59 3.50002L653.59 4.50002L657.607 4.50002L657.607 3.50002ZM649.573 3.50002L645.556 3.50002L645.556 4.50002L649.573 4.50002L649.573 3.50002ZM641.539 3.50002L637.522 3.50002L637.522 4.50002L641.539 4.50002L641.539 3.50002ZM633.505 3.50002L629.487 3.50001L629.487 4.50001L633.505 4.50002L633.505 3.50002ZM625.47 3.50001L621.453 3.50001L621.453 4.50001L625.47 4.50001L625.47 3.50001ZM617.436 3.50001L613.419 3.50001L613.419 4.50001L617.436 4.50001L617.436 3.50001ZM609.402 3.50001L605.385 3.50001L605.385 4.50001L609.402 4.50001L609.402 3.50001ZM601.368 3.50001L597.351 3.50001L597.351 4.50001L601.368 4.50001L601.368 3.50001ZM593.334 3.50001L589.317 3.50001L589.317 4.50001L593.334 4.50001L593.334 3.50001ZM585.299 3.50001L581.282 3.50001L581.282 4.50001L585.299 4.50001L585.299 3.50001ZM577.265 3.50001L573.248 3.50001L573.248 4.50001L577.265 4.50001L577.265 3.50001ZM569.231 3.50001L565.214 3.50001L565.214 4.50001L569.231 4.50001L569.231 3.50001ZM561.197 3.50001L557.18 3.50001L557.18 4.50001L561.197 4.50001L561.197 3.50001ZM553.163 3.50001L549.146 3.50001L549.146 4.50001L553.163 4.50001L553.163 3.50001ZM545.129 3.50001L541.112 3.50001L541.112 4.50001L545.129 4.50001L545.129 3.50001ZM537.094 3.50001L533.077 3.50001L533.077 4.50001L537.094 4.50001L537.094 3.50001ZM529.06 3.50001L525.043 3.50001L525.043 4.50001L529.06 4.50001L529.06 3.50001ZM521.026 3.50001L517.009 3.5L517.009 4.5L521.026 4.50001L521.026 3.50001ZM512.992 3.5L508.975 3.5L508.975 4.5L512.992 4.5L512.992 3.5ZM504.958 3.5L500.941 3.5L500.941 4.5L504.958 4.5L504.958 3.5ZM496.924 3.5L492.906 3.5L492.906 4.5L496.924 4.5L496.924 3.5ZM488.889 3.5L484.872 3.5L484.872 4.5L488.889 4.5L488.889 3.5ZM480.855 3.5L476.838 3.5L476.838 4.5L480.855 4.5L480.855 3.5ZM472.821 3.5L468.804 3.5L468.804 4.5L472.821 4.5L472.821 3.5ZM464.787 3.5L460.77 3.5L460.77 4.5L464.787 4.5L464.787 3.5ZM456.753 3.5L452.736 3.5L452.736 4.5L456.753 4.5L456.753 3.5ZM448.718 3.5L444.701 3.5L444.701 4.5L448.718 4.5L448.718 3.5ZM440.684 3.5L436.667 3.5L436.667 4.5L440.684 4.5L440.684 3.5ZM432.65 3.5L428.633 3.5L428.633 4.5L432.65 4.5L432.65 3.5ZM424.616 3.5L420.599 3.5L420.599 4.5L424.616 4.5L424.616 3.5ZM416.582 3.5L412.565 3.5L412.565 4.5L416.582 4.5L416.582 3.5ZM408.548 3.5L404.53 3.5L404.53 4.5L408.548 4.5L408.548 3.5ZM400.513 3.49999L396.496 3.49999L396.496 4.49999L400.513 4.49999L400.513 3.49999ZM392.479 3.49999L388.462 3.49999L388.462 4.49999L392.479 4.49999L392.479 3.49999ZM384.445 3.49999L380.428 3.49999L380.428 4.49999L384.445 4.49999L384.445 3.49999ZM376.411 3.49999L372.394 3.49999L372.394 4.49999L376.411 4.49999L376.411 3.49999ZM368.377 3.49999L364.36 3.49999L364.36 4.49999L368.377 4.49999L368.377 3.49999ZM360.342 3.49999L356.325 3.49999L356.325 4.49999L360.342 4.49999L360.342 3.49999ZM352.308 3.49999L348.291 3.49999L348.291 4.49999L352.308 4.49999L352.308 3.49999ZM344.274 3.49999L340.257 3.49999L340.257 4.49999L344.274 4.49999L344.274 3.49999ZM336.24 3.49999L332.223 3.49999L332.223 4.49999L336.24 4.49999L336.24 3.49999ZM328.206 3.49999L324.189 3.49999L324.189 4.49999L328.206 4.49999L328.206 3.49999ZM320.172 3.49999L316.154 3.49999L316.154 4.49999L320.172 4.49999L320.172 3.49999ZM312.137 3.49999L308.12 3.49999L308.12 4.49999L312.137 4.49999L312.137 3.49999ZM304.103 3.49999L300.086 3.49999L300.086 4.49999L304.103 4.49999L304.103 3.49999ZM296.069 3.49999L292.052 3.49999L292.052 4.49999L296.069 4.49999L296.069 3.49999ZM288.035 3.49998L284.018 3.49998L284.018 4.49998L288.035 4.49998L288.035 3.49998ZM280.001 3.49998L275.984 3.49998L275.984 4.49998L280.001 4.49998L280.001 3.49998ZM271.966 3.49998L267.949 3.49998L267.949 4.49998L271.966 4.49998L271.966 3.49998ZM263.932 3.49998L259.915 3.49998L259.915 4.49998L263.932 4.49998L263.932 3.49998ZM255.898 3.49998L251.881 3.49998L251.881 4.49998L255.898 4.49998L255.898 3.49998ZM247.864 3.49998L243.847 3.49998L243.847 4.49998L247.864 4.49998L247.864 3.49998ZM239.83 3.49998L235.813 3.49998L235.813 4.49998L239.83 4.49998L239.83 3.49998ZM231.796 3.49998L227.779 3.49998L227.779 4.49998L231.796 4.49998L231.796 3.49998ZM223.761 3.49998L219.744 3.49998L219.744 4.49998L223.761 4.49998L223.761 3.49998ZM215.727 3.49998L211.71 3.49998L211.71 4.49998L215.727 4.49998L215.727 3.49998ZM207.693 3.49998L203.676 3.49998L203.676 4.49998L207.693 4.49998L207.693 3.49998ZM199.659 3.49998L195.642 3.49998L195.642 4.49998L199.659 4.49998L199.659 3.49998ZM191.625 3.49998L187.608 3.49998L187.608 4.49998L191.625 4.49998L191.625 3.49998ZM183.591 3.49998L179.573 3.49998L179.573 4.49998L183.591 4.49998L183.591 3.49998ZM175.556 3.49998L171.539 3.49997L171.539 4.49997L175.556 4.49998L175.556 3.49998ZM167.522 3.49997L163.505 3.49997L163.505 4.49997L167.522 4.49997L167.522 3.49997ZM159.488 3.49997L155.471 3.49997L155.471 4.49997L159.488 4.49997L159.488 3.49997ZM151.454 3.49997L147.437 3.49997L147.437 4.49997L151.454 4.49997L151.454 3.49997ZM143.42 3.49997L139.403 3.49997L139.403 4.49997L143.42 4.49997L143.42 3.49997ZM135.385 3.49997L131.368 3.49997L131.368 4.49997L135.385 4.49997L135.385 3.49997ZM127.351 3.49997L123.334 3.49997L123.334 4.49997L127.351 4.49997L127.351 3.49997ZM119.317 3.49997L115.3 3.49997L115.3 4.49997L119.317 4.49997L119.317 3.49997ZM111.283 3.49997L107.266 3.49997L107.266 4.49997L111.283 4.49997L111.283 3.49997ZM103.249 3.49997L99.2316 3.49997L99.2316 4.49997L103.249 4.49997L103.249 3.49997ZM95.2145 3.49997L91.1974 3.49997L91.1974 4.49997L95.2145 4.49997L95.2145 3.49997ZM87.1803 3.49997L83.1633 3.49997L83.1633 4.49997L87.1803 4.49997L87.1803 3.49997ZM79.1461 3.49997L75.1291 3.49997L75.1291 4.49997L79.1461 4.49997L79.1461 3.49997ZM71.112 3.49997L67.0949 3.49997L67.0949 4.49997L71.112 4.49997L71.112 3.49997ZM63.0778 3.49997L59.0607 3.49996L59.0607 4.49996L63.0778 4.49997L63.0778 3.49997ZM55.0436 3.49996L51.0265 3.49996L51.0265 4.49996L55.0436 4.49996L55.0436 3.49996ZM47.0094 3.49996L45 3.49996L45 4.49996L47.0094 4.49996L47.0094 3.49996Z" fill="#FF0266"/>
<path d="M3.64637 221.353C3.84159 221.549 4.15818 221.549 4.35348 221.354L7.53613 218.172C7.73143 217.977 7.7315 217.661 7.53628 217.465C7.34106 217.27 7.02448 217.27 6.82917 217.465L4.00015 220.293L1.17232 217.464C0.977098 217.269 0.660516 217.268 0.465212 217.464C0.269909 217.659 0.269842 217.976 0.465063 218.171L3.64637 221.353ZM4.03784 41.6681C5.5106 41.6684 6.70476 40.4748 6.70507 39.002C6.70538 37.5293 5.51173 36.3351 4.03897 36.3348C2.56621 36.3345 1.37205 37.5281 1.37174 39.0009C1.37143 40.4737 2.56508 41.6678 4.03784 41.6681ZM4.5 221L4.50042 219.022L3.50042 219.022L3.5 221L4.5 221ZM4.50125 215.065L4.50209 211.109L3.50209 211.109L3.50125 215.065L4.50125 215.065ZM4.50292 207.152L4.50376 203.196L3.50376 203.196L3.50292 207.152L4.50292 207.152ZM4.50459 199.239L4.50543 195.283L3.50543 195.283L3.50459 199.239L4.50459 199.239ZM4.50626 191.326L4.5071 187.37L3.5071 187.37L3.50626 191.326L4.50626 191.326ZM4.50793 183.413L4.50877 179.457L3.50877 179.457L3.50793 183.413L4.50793 183.413ZM4.5096 175.5L4.51044 171.544L3.51044 171.544L3.5096 175.5L4.5096 175.5ZM4.51127 167.587L4.51211 163.631L3.51211 163.631L3.51127 167.587L4.51127 167.587ZM4.51294 159.675L4.51378 155.718L3.51378 155.718L3.51294 159.674L4.51294 159.675ZM4.51461 151.762L4.51545 147.805L3.51545 147.805L3.51461 151.761L4.51461 151.762ZM4.51628 143.849L4.51712 139.892L3.51712 139.892L3.51628 143.848L4.51628 143.849ZM4.51795 135.936L4.51879 131.979L3.51879 131.979L3.51795 135.935L4.51795 135.936ZM4.51962 128.023L4.52045 124.066L3.52045 124.066L3.51962 128.022L4.51962 128.023ZM4.52129 120.11L4.52212 116.153L3.52212 116.153L3.52129 120.109L4.52129 120.11ZM4.52296 112.197L4.52379 108.24L3.52379 108.24L3.52296 112.196L4.52296 112.197ZM4.52463 104.284L4.52546 100.327L3.52546 100.327L3.52463 104.283L4.52463 104.284ZM4.5263 96.3707L4.52713 92.4142L3.52713 92.414L3.5263 96.3705L4.5263 96.3707ZM4.52797 88.4577L4.5288 84.5012L3.5288 84.501L3.52797 88.4575L4.52797 88.4577ZM4.52964 80.5447L4.53047 76.5882L3.53047 76.588L3.52964 80.5445L4.52964 80.5447ZM4.53131 72.6317L4.53214 68.6752L3.53214 68.675L3.53131 72.6315L4.53131 72.6317ZM4.53298 64.7187L4.53381 60.7622L3.53381 60.762L3.53298 64.7185L4.53298 64.7187ZM4.53465 56.8057L4.53548 52.8492L3.53548 52.849L3.53465 56.8055L4.53465 56.8057ZM4.53632 48.8927L4.53715 44.9362L3.53715 44.936L3.53632 48.8925L4.53632 48.8927ZM4.53799 40.9797L4.53841 39.0016L3.53841 39.0013L3.53799 40.9795L4.53799 40.9797Z" fill="#FF0266"/>
</svg>
