<svg width="543" height="543" viewBox="0 0 543 543" fill="none" xmlns="http://www.w3.org/2000/svg">
<g filter="url(#filter0_i_323_421)">
<path d="M428.852 1H114.148C51.6581 1 1 51.6581 1 114.148V428.852C1 491.342 51.6581 542 114.148 542H428.852C491.342 542 542 491.342 542 428.852V114.148C542 51.6581 491.342 1 428.852 1Z" fill="#EAE6DD"/>
</g>
<path d="M428.852 1H114.148C51.6581 1 1 51.6581 1 114.148V428.852C1 491.342 51.6581 542 114.148 542H428.852C491.342 542 542 491.342 542 428.852V114.148C542 51.6581 491.342 1 428.852 1Z" stroke="#C66E4E" stroke-width="2" stroke-miterlimit="10"/>
<defs>
<filter id="filter0_i_323_421" x="0" y="0" width="543" height="547" filterUnits="userSpaceOnUse" color-interpolation-filters="sRGB">
<feFlood flood-opacity="0" result="BackgroundImageFix"/>
<feBlend mode="normal" in="SourceGraphic" in2="BackgroundImageFix" result="shape"/>
<feColorMatrix in="SourceAlpha" type="matrix" values="0 0 0 0 0 0 0 0 0 0 0 0 0 0 0 0 0 0 127 0" result="hardAlpha"/>
<feOffset dy="5"/>
<feGaussianBlur stdDeviation="2"/>
<feComposite in2="hardAlpha" operator="arithmetic" k2="-1" k3="1"/>
<feColorMatrix type="matrix" values="0 0 0 0 0.776471 0 0 0 0 0.431373 0 0 0 0 0.305882 0 0 0 1 0"/>
<feBlend mode="normal" in2="shape" result="effect1_innerShadow_323_421"/>
</filter>
</defs>
</svg>
