<svg width="1377" height="1155" viewBox="0 0 1377 1155" fill="none" xmlns="http://www.w3.org/2000/svg">
<g filter="url(#filter0_d_323_420)">
<line x1="977" y1="88.5" x2="4" y2="88.4999" stroke="#0096BB"/>
<line x1="977" y1="283.5" x2="4" y2="283.5" stroke="#0096BB"/>
<line x1="979" y1="478.5" x2="6" y2="478.5" stroke="#0096BB"/>
<line x1="979" y1="668.5" x2="6" y2="668.5" stroke="#0096BB"/>
<line x1="104.5" y1="3.56915" x2="104.5" y2="745" stroke="#0096BB"/>
<line x1="299.5" y1="3.56915" x2="299.5" y2="745" stroke="#0096BB"/>
<line x1="494.5" y1="2" x2="494.5" y2="743.431" stroke="#0096BB"/>
<line x1="684.5" y1="2.18557e-08" x2="684.5" y2="741.431" stroke="#0096BB"/>
<line x1="879.5" y1="2" x2="879.5" y2="743.431" stroke="#0096BB"/>
<line x1="979" y1="184" x2="4" y2="184" stroke="#0096BB" stroke-width="2"/>
<line x1="979" y1="379" x2="4" y2="379" stroke="#0096BB" stroke-width="2"/>
<line x1="979" y1="574" x2="4" y2="574" stroke="#0096BB" stroke-width="2"/>
<line x1="5" y1="3.56915" x2="4.99996" y2="745" stroke="#0096BB" stroke-width="2"/>
<line x1="200" y1="3.56915" x2="200" y2="745" stroke="#0096BB" stroke-width="2"/>
<line x1="395" y1="3.56915" x2="395" y2="745" stroke="#0096BB" stroke-width="2"/>
<line x1="590" y1="3.56915" x2="590" y2="745" stroke="#0096BB" stroke-width="2"/>
<line x1="785" y1="3.56915" x2="785" y2="745" stroke="#0096BB" stroke-width="2"/>
<line x1="980" y1="3.56915" x2="980" y2="745" stroke="#0096BB" stroke-width="2"/>
<line x1="977" y1="756.5" x2="4" y2="756.5" stroke="#0096BB"/>
<line x1="977" y1="951.5" x2="4" y2="951.5" stroke="#0096BB"/>
<line x1="979" y1="1146.5" x2="6" y2="1146.5" stroke="#0096BB"/>
<line x1="104.5" y1="672" x2="104.5" y2="1146" stroke="#0096BB"/>
<line x1="299.5" y1="671.567" x2="301.5" y2="1146" stroke="#0096BB"/>
<line x1="494.5" y1="670.001" x2="493.556" y2="1146" stroke="#0096BB"/>
<line x1="684.5" y1="668" x2="684.5" y2="1146" stroke="#0096BB"/>
<line x1="879.5" y1="669.999" x2="880.5" y2="1146" stroke="#0096BB"/>
<line x1="979" y1="852" x2="4" y2="852" stroke="#0096BB" stroke-width="2"/>
<line x1="979" y1="1047" x2="4" y2="1047" stroke="#0096BB" stroke-width="2"/>
<path d="M4.99902 671.569L4.99895 1147" stroke="#0096BB" stroke-width="2"/>
<line x1="200" y1="672" x2="200" y2="1146" stroke="#0096BB" stroke-width="2"/>
<line x1="395" y1="671.565" x2="397" y2="1146" stroke="#0096BB" stroke-width="2"/>
<line x1="590" y1="672" x2="590" y2="1146" stroke="#0096BB" stroke-width="2"/>
<line x1="785" y1="672" x2="785" y2="1146" stroke="#0096BB" stroke-width="2"/>
<line x1="980" y1="672" x2="980" y2="1147" stroke="#0096BB" stroke-width="2"/>
<line x1="1369" y1="88.5" x2="979" y2="88.5" stroke="#0096BB"/>
<line x1="1369" y1="283.5" x2="979" y2="283.5" stroke="#0096BB"/>
<line x1="1369" y1="478.5" x2="981" y2="478.5" stroke="#0096BB"/>
<line x1="1369" y1="668.5" x2="981" y2="668.5" stroke="#0096BB"/>
<line x1="1079.5" y1="3.56915" x2="1079.5" y2="745" stroke="#0096BB"/>
<line x1="1274.5" y1="3.56915" x2="1274.5" y2="745" stroke="#0096BB"/>
<line x1="1369" y1="184" x2="979" y2="184" stroke="#0096BB" stroke-width="2"/>
<line x1="1371" y1="379" x2="979" y2="379" stroke="#0096BB" stroke-width="2"/>
<line x1="1369" y1="574" x2="979" y2="574" stroke="#0096BB" stroke-width="2"/>
<line x1="1175" y1="3.56915" x2="1175" y2="745" stroke="#0096BB" stroke-width="2"/>
<line x1="1370" y1="3.56915" x2="1370" y2="745" stroke="#0096BB" stroke-width="2"/>
<line x1="1369" y1="756.5" x2="979" y2="756.5" stroke="#0096BB"/>
<line x1="1370" y1="951.5" x2="979" y2="951.5" stroke="#0096BB"/>
<line x1="1370" y1="1146.5" x2="981" y2="1146.5" stroke="#0096BB"/>
<line x1="1079.5" y1="672" x2="1079.5" y2="1146" stroke="#0096BB"/>
<line x1="1274.5" y1="671.567" x2="1276.5" y2="1146" stroke="#0096BB"/>
<line x1="1369" y1="852" x2="979" y2="852" stroke="#0096BB" stroke-width="2"/>
<line x1="1370" y1="1047" x2="979" y2="1047" stroke="#0096BB" stroke-width="2"/>
<line x1="1175" y1="672" x2="1175" y2="1146" stroke="#0096BB" stroke-width="2"/>
<line x1="1370" y1="671.565" x2="1372" y2="1146" stroke="#0096BB" stroke-width="2"/>
</g>
<defs>
<filter id="filter0_d_323_420" x="-0.000976562" y="0" width="1377" height="1155" filterUnits="userSpaceOnUse" color-interpolation-filters="sRGB">
<feFlood flood-opacity="0" result="BackgroundImageFix"/>
<feColorMatrix in="SourceAlpha" type="matrix" values="0 0 0 0 0 0 0 0 0 0 0 0 0 0 0 0 0 0 127 0" result="hardAlpha"/>
<feOffset dy="4"/>
<feGaussianBlur stdDeviation="2"/>
<feComposite in2="hardAlpha" operator="out"/>
<feColorMatrix type="matrix" values="0 0 0 0 0 0 0 0 0 0 0 0 0 0 0 0 0 0 0.25 0"/>
<feBlend mode="normal" in2="BackgroundImageFix" result="effect1_dropShadow_323_420"/>
<feBlend mode="normal" in="SourceGraphic" in2="effect1_dropShadow_323_420" result="shape"/>
</filter>
</defs>
</svg>
