<svg width="113" height="111" viewBox="0 0 113 111" fill="none" xmlns="http://www.w3.org/2000/svg">
<rect x="12.3263" y="21.8737" width="82.2526" height="82.2526" rx="10" fill="#EAE6DD" stroke="#0096BB" stroke-width="2"/>
<path d="M86.1558 75.4383L86.1511 75.4469L86.1467 75.4556C86.0107 75.728 85.7896 75.96 85.5 76.2565L85.4792 76.2778C85.2179 76.5452 84.8981 76.8725 84.6864 77.2858C80.1222 84.6542 74.4232 90.9094 67.2663 95.5045C61.9341 98.9282 56.0624 101.416 49.9186 102.716C49.2591 102.856 48.589 102.452 48.1001 101.625C47.6167 100.808 47.4344 99.7547 47.6696 98.9728C47.9202 98.1398 48.0637 97.2755 48.083 96.3999L47.5815 96.3871L48.083 96.3999C48.0858 96.2716 48.077 96.1424 48.0558 96.0142C47.8596 94.8269 47.3831 93.5886 46.827 92.6339C46.3554 91.8241 45.5809 90.9545 44.9451 90.3025C44.16 89.4201 43.2919 88.8526 42.4807 88.3223L42.4705 88.3156C40.2945 86.7758 38.0521 85.3391 35.8211 83.9098L35.8163 83.9067C33.5804 82.4743 31.356 81.049 29.2006 79.5237C26.021 77.0962 23.2166 74.4505 20.3778 71.3152C14.6584 64.6084 10.7526 56.8708 8.9323 48.5787C8.78727 47.918 9.17081 47.2848 9.96062 46.8343C10.7464 46.3862 11.781 46.2251 12.5807 46.4588C13.1485 46.6248 13.7455 46.7424 14.3749 46.8079L14.3851 46.8089L14.3953 46.8096C18.6538 47.0794 21.4944 44.0603 23.4144 41.1827C25.2402 38.6219 26.8754 36.1696 28.5904 33.4208C30.672 30.4759 32.8639 27.7165 35.0658 24.9452C38.2726 21.3654 42.1904 18.1217 46.1486 15.3545C51.7556 11.7557 57.9625 9.18946 64.4976 7.81024C65.161 7.67023 65.7116 7.988 66.0497 8.57661C66.3956 9.17884 66.4721 10.0064 66.1542 10.7081C65.8784 11.3167 65.6596 11.9619 65.5162 12.65L65.5092 12.6839L65.5069 12.7185C65.3461 15.1672 65.7812 17.3405 67.4847 19.3304L67.4924 19.3394L67.5005 19.348C69.5484 21.5242 71.7843 23.1327 74.0753 24.5862C74.9851 25.1634 75.8923 25.7098 76.7991 26.2559C78.2005 27.0999 79.6009 27.9433 81.0088 28.8994L81.0137 28.9026C92.9443 36.8046 101.635 48.867 104.625 62.5962C104.767 63.249 104.418 63.8488 103.725 64.2518C103.028 64.657 102.099 64.7795 101.356 64.5071C99.2814 63.7464 97.0042 63.7088 94.9173 65.0399C90.9659 67.306 88.382 71.3913 86.1558 75.4383Z" stroke="#BD1620"/>
<path d="M55.0135 87.2995L55.0051 87.3046L54.9969 87.31C54.8298 87.4203 54.624 87.4827 54.3267 87.5667L54.3005 87.5741C54.0401 87.6477 53.7015 87.7433 53.3982 87.9379C47.7892 90.9496 41.8763 92.843 35.6559 93.1588C31.6069 93.3644 27.5613 92.9694 23.6938 91.9327C23.0643 91.764 22.6557 91.069 22.5804 89.9775C22.5073 88.9183 22.781 87.7331 23.2388 86.9951L22.814 86.7315L23.2388 86.9951C23.3082 86.8834 23.3663 86.7657 23.4127 86.6413C23.7231 85.8091 23.8761 84.8511 23.8761 84.0405C23.8761 83.3383 23.7028 82.4925 23.5399 81.8457C23.3638 80.9835 23.016 80.2948 22.6985 79.6661L22.6932 79.6557C21.8798 77.8849 20.9863 76.1559 20.099 74.4389L20.0964 74.4338C19.2064 72.7116 18.3227 71.0014 17.5198 69.2534C16.4028 66.5663 15.6031 63.876 14.9617 60.8615C13.8918 54.9709 14.1506 49.0858 15.7343 43.53C15.8967 42.9604 16.4964 42.6016 17.4319 42.555C18.3474 42.5094 19.3677 42.79 20.0076 43.2507L20.0159 43.2567L20.0244 43.2623C22.6919 45.0228 25.6724 44.1084 27.9625 42.9759C30.07 42.0128 32.0165 41.0493 34.1228 39.9267C36.528 38.8161 38.935 37.8625 41.3567 36.9035C44.7035 35.8006 48.3787 35.1664 51.9073 34.8482C56.3131 34.6256 60.7178 35.1139 64.9526 36.3125C65.5707 36.4874 65.8919 37.0089 65.9151 37.7435C65.9388 38.4911 65.6344 39.3517 65.1006 39.9462L65.0774 39.9721L65.0579 40.001C64.0368 41.5175 63.4935 43.0915 63.8475 45.0191L63.8497 45.0307L63.8524 45.0423C64.3517 47.1845 65.1824 49.0302 66.1022 50.7906C66.4698 51.4942 66.845 52.173 67.2192 52.8499C67.7951 53.8917 68.3687 54.9292 68.9083 56.0463L68.9083 56.0463L68.9108 56.0515C73.3174 64.9089 74.4886 75.0814 71.8808 84.4514C71.7075 85.0741 71.1198 85.4318 70.2281 85.4791C69.343 85.526 68.3281 85.2411 67.6346 84.7625C66.7532 84.1543 65.7002 83.8039 64.489 83.8611C61.1024 83.8651 57.9232 85.5391 55.0135 87.2995Z" stroke="#0096BB"/>
</svg>
